# Aspose.3D Wavefront OBJ Exporter
# Copyright 2004-2023 Aspose Pty Ltd.
# File created: 10/17/2023 22:34:33


#
# object obj_30669421
#

v -2.40118408203125 -39 0.03767431154847145
v -2.40000009536743168 -13 0
v -2.40118408203125 -13 0.03767431154847145
v -2.40000009536743168 -39 0
v -2.40473127365112304 -39 0.07519993931055069
v -2.40473127365112304 -13 0.07519993931055069
v -2.41062760353088376 -39 0.11242879182100296
v -2.41062760353088376 -13 0.11242879182100296
v -2.41885018348693848 -39 0.14921392500400544
v -2.41885018348693848 -13 0.14921392500400544
v -2.42936611175537112 -39 0.18541020154953004
v -2.42936611175537112 -13 0.18541020154953004
v -2.44213414192199704 -39 0.22087472677230836
v -2.44213414192199704 -13 0.22087472677230836
v -2.45710372924804688 -39 0.25546756386756896
v -2.45710372924804688 -13 0.25546756386756896
v -2.4742159843444824 -39 0.28905221819877624
v -2.4742159843444824 -13 0.28905221819877624
v -2.49340319633483888 -39 0.32149606943130492
v -2.49340319633483888 -13 0.32149606943130492
v -2.51458978652954104 -39 0.35267114639282228
v -2.51458978652954104 -13 0.35267114639282228
v -2.53769207000732424 -39 0.38245439529418944
v -2.53769207000732424 -13 0.38245439529418944
v -2.56261873245239256 -39 0.41072827577590944
v -2.56261873245239256 -13 0.41072827577590944
v -2.58927178382873536 -13 0.43738117814064024
v -2.58927178382873536 -39 0.43738117814064024
v -2.61754560470581056 -13 0.46230795979499816
v -2.61754560470581056 -39 0.46230795979499816
v -2.64732885360717776 -13 0.48541018366813656
v -2.64732885360717776 -39 0.48541018366813656
v -2.67850399017333984 -13 0.50659674406051632
v -2.67850399017333984 -39 0.50659674406051632
v -2.71094775199890136 -13 0.5257840156555176
v -2.71094775199890136 -39 0.5257840156555176
v -2.74453234672546384 -13 0.54289621114730832
v -2.74453234672546384 -39 0.54289621114730832
v -2.77912521362304688 -13 0.55786591768264768
v -2.77912521362304688 -39 0.55786591768264768
v -2.81458973884582512 -13 0.57063388824462888
v -2.81458973884582512 -39 0.57063388824462888
v -2.85078597068786624 -13 0.58114987611770632
v -2.85078597068786624 -39 0.58114987611770632
v -2.88757109642028816 -13 0.58937233686447144
v -2.88757109642028816 -39 0.58937233686447144
v -2.92480015754699712 -13 0.59526884555816648
v -2.92480015754699712 -39 0.59526884555816648
v -2.96232557296752928 -13 0.59881603717803952
v -2.96232557296752928 -39 0.59881603717803952
v -3 -13 0.60000002384185792
v -3 -39 0.60000002384185792
v -3.0376744270324707 -13 0.59881603717803952
v -3.0376744270324707 -39 0.59881603717803952
v -3.07519984245300293 -13 0.59526884555816648
v -3.07519984245300293 -39 0.59526884555816648
v -3.11242890357971192 -13 0.58937233686447144
v -3.11242890357971192 -39 0.58937233686447144
v -3.14921402931213378 -13 0.58114987611770632
v -3.14921402931213378 -39 0.58114987611770632
v -3.1854102611541748 -13 0.57063388824462888
v -3.1854102611541748 -39 0.57063388824462888
v -3.22087478637695312 -13 0.55786591768264768
v -3.22087478637695312 -39 0.55786591768264768
v -3.25546765327453612 -13 0.54289621114730832
v -3.25546765327453612 -39 0.54289621114730832
v -3.28905224800109864 -13 0.5257840156555176
v -3.28905224800109864 -39 0.5257840156555176
v -3.32149600982666016 -13 0.50659674406051632
v -3.32149600982666016 -39 0.50659674406051632
v -3.35267114639282228 -13 0.48541018366813656
v -3.35267114639282228 -39 0.48541018366813656
v -3.38245439529418944 -13 0.46230795979499816
v -3.38245439529418944 -39 0.46230795979499816
v -3.41072821617126464 -13 0.43738117814064024
v -3.41072821617126464 -39 0.43738117814064024
v -3.43738126754760744 -13 0.41072827577590944
v -3.43738126754760744 -39 0.41072827577590944
v -3.46230792999267576 -39 0.38245439529418944
v -3.46230792999267576 -13 0.38245439529418944
v -3.48541021347045896 -39 0.35267114639282228
v -3.48541021347045896 -13 0.35267114639282228
v -3.50659680366516112 -39 0.32149606943130492
v -3.50659680366516112 -13 0.32149606943130492
v -3.5257840156555176 -39 0.28905221819877624
v -3.5257840156555176 -13 0.28905221819877624
v -3.54289627075195312 -39 0.25546756386756896
v -3.54289627075195312 -13 0.25546756386756896
v -3.55786585807800296 -39 0.22087472677230836
v -3.55786585807800296 -13 0.22087472677230836
v -3.57063388824462888 -39 0.18541020154953004
v -3.57063388824462888 -13 0.18541020154953004
v -3.58114981651306152 -39 0.14921392500400544
v -3.58114981651306152 -13 0.14921392500400544
v -3.58937239646911624 -39 0.11242879182100296
v -3.58937239646911624 -13 0.11242879182100296
v -3.59526872634887696 -39 0.07519993931055069
v -3.59526872634887696 -13 0.07519993931055069
v -3.59881591796875 -39 0.03767431154847145
v -3.59881591796875 -13 0.03767431154847145
v -3.59999990463256832 -39 0
v -3.59999990463256832 -13 0
v -3.59881591796875 -39 -0.03767431154847145
v -3.59881591796875 -13 -0.03767431154847145
v -3.59526872634887696 -39 -0.07519993931055069
v -3.59526872634887696 -13 -0.07519993931055069
v -3.58937239646911624 -39 -0.11242879182100296
v -3.58937239646911624 -13 -0.11242879182100296
v -3.58114981651306152 -39 -0.14921392500400544
v -3.58114981651306152 -13 -0.14921392500400544
v -3.57063388824462888 -39 -0.18541020154953004
v -3.57063388824462888 -13 -0.18541020154953004
v -3.55786585807800296 -39 -0.22087472677230836
v -3.55786585807800296 -13 -0.22087472677230836
v -3.54289627075195312 -39 -0.25546756386756896
v -3.54289627075195312 -13 -0.25546756386756896
v -3.5257840156555176 -39 -0.28905221819877624
v -3.5257840156555176 -13 -0.28905221819877624
v -3.50659680366516112 -39 -0.32149606943130492
v -3.50659680366516112 -13 -0.32149606943130492
v -3.48541021347045896 -39 -0.35267114639282228
v -3.48541021347045896 -13 -0.35267114639282228
v -3.46230792999267576 -39 -0.38245439529418944
v -3.46230792999267576 -13 -0.38245439529418944
v -3.43738126754760744 -39 -0.41072827577590944
v -3.43738126754760744 -13 -0.41072827577590944
v -3.41072821617126464 -13 -0.43738117814064024
v -3.41072821617126464 -39 -0.43738117814064024
v -3.38245439529418944 -13 -0.46230795979499816
v -3.38245439529418944 -39 -0.46230795979499816
v -3.35267114639282228 -13 -0.48541018366813656
v -3.35267114639282228 -39 -0.48541018366813656
v -3.32149600982666016 -13 -0.50659674406051632
v -3.32149600982666016 -39 -0.50659674406051632
v -3.28905224800109864 -13 -0.5257840156555176
v -3.28905224800109864 -39 -0.5257840156555176
v -3.25546765327453612 -13 -0.54289621114730832
v -3.25546765327453612 -39 -0.54289621114730832
v -3.22087478637695312 -13 -0.55786591768264768
v -3.22087478637695312 -39 -0.55786591768264768
v -3.1854102611541748 -13 -0.57063388824462888
v -3.1854102611541748 -39 -0.57063388824462888
v -3.14921402931213378 -13 -0.58114987611770632
v -3.14921402931213378 -39 -0.58114987611770632
v -3.11242890357971192 -13 -0.58937233686447144
v -3.11242890357971192 -39 -0.58937233686447144
v -3.07519984245300293 -13 -0.59526884555816648
v -3.07519984245300293 -39 -0.59526884555816648
v -3.0376744270324707 -13 -0.59881603717803952
v -3.0376744270324707 -39 -0.59881603717803952
v -3 -13 -0.60000002384185792
v -3 -39 -0.60000002384185792
v -2.96232557296752928 -13 -0.59881603717803952
v -2.96232557296752928 -39 -0.59881603717803952
v -2.92480015754699712 -13 -0.59526884555816648
v -2.92480015754699712 -39 -0.59526884555816648
v -2.88757109642028816 -13 -0.58937233686447144
v -2.88757109642028816 -39 -0.58937233686447144
v -2.85078597068786624 -13 -0.58114987611770632
v -2.85078597068786624 -39 -0.58114987611770632
v -2.81458973884582512 -13 -0.57063388824462888
v -2.81458973884582512 -39 -0.57063388824462888
v -2.77912521362304688 -13 -0.55786591768264768
v -2.77912521362304688 -39 -0.55786591768264768
v -2.74453234672546384 -13 -0.54289621114730832
v -2.74453234672546384 -39 -0.54289621114730832
v -2.71094775199890136 -13 -0.5257840156555176
v -2.71094775199890136 -39 -0.5257840156555176
v -2.67850399017333984 -13 -0.50659674406051632
v -2.67850399017333984 -39 -0.50659674406051632
v -2.64732885360717776 -13 -0.48541018366813656
v -2.64732885360717776 -39 -0.48541018366813656
v -2.61754560470581056 -13 -0.46230795979499816
v -2.61754560470581056 -39 -0.46230795979499816
v -2.58927178382873536 -13 -0.43738117814064024
v -2.58927178382873536 -39 -0.43738117814064024
v -2.56261873245239256 -13 -0.41072827577590944
v -2.56261873245239256 -39 -0.41072827577590944
v -2.53769207000732424 -39 -0.38245439529418944
v -2.53769207000732424 -13 -0.38245439529418944
v -2.51458978652954104 -39 -0.35267114639282228
v -2.51458978652954104 -13 -0.35267114639282228
v -2.49340319633483888 -39 -0.32149606943130492
v -2.49340319633483888 -13 -0.32149606943130492
v -2.4742159843444824 -39 -0.28905221819877624
v -2.4742159843444824 -13 -0.28905221819877624
v -2.45710372924804688 -39 -0.25546756386756896
v -2.45710372924804688 -13 -0.25546756386756896
v -2.44213414192199704 -39 -0.22087472677230836
v -2.44213414192199704 -13 -0.22087472677230836
v -2.42936611175537112 -39 -0.18541020154953004
v -2.42936611175537112 -13 -0.18541020154953004
v -2.41885018348693848 -39 -0.14921392500400544
v -2.41885018348693848 -13 -0.14921392500400544
v -2.41062760353088376 -39 -0.11242879182100296
v -2.41062760353088376 -13 -0.11242879182100296
v -2.40473127365112304 -39 -0.07519993931055069
v -2.40473127365112304 -13 -0.07519993931055069
v -2.40118408203125 -39 -0.03767431154847145
v -2.40118408203125 -13 -0.03767431154847145
# 200 vertices

vn 0.99950653314590448 0 0.03141138702630996
vn 0.99556201696395872 0 0.09410766512155532
vn 0.98768889904022224 0 0.15643081068992614
vn 0.97591602802276608 0 0.21814648807048796
vn 0.9602941274642944 0 0.27898958325386048
vn 0.94088065624237056 0 0.3387382924556732
vn 0.91775530576705936 0 0.39714631438255312
vn 0.89100629091262816 0 0.45399090647697448
vn 0.86074239015579216 0 0.509040892124176
vn 0.82708024978637696 0 0.56208395957946776
vn 0.79015463590621952 0 0.61290746927261352
vn 0.75011265277862544 0 0.6613101363182068
vn 0.7071048021316528 0 0.7071087956428528
vn 0.66131269931793216 0 0.7501103281974792
vn 0.61290651559829712 0 0.7901554107666016
vn 0.56208264827728272 0 0.82708108425140384
vn 0.50904309749603272 0 0.8607410788536072
vn 0.45399031043052672 0 0.8910066485404968
vn 0.39714869856834408 0 0.91775429248809808
vn 0.338736891746521 0 0.9408811330795288
vn 0.27899134159088136 0 0.96029359102249152
vn 0.2181435227394104 0 0.97591668367385872
vn 0.1564345806837082 0 0.9876883029937744
vn 0.0941081941127777 0 0.99556201696395872
vn 0.0314112938940525 0 0.99950659275054928
vn -0.0314112938940525 0 0.99950659275054928
vn -0.0941081941127777 0 0.99556201696395872
vn -0.1564345806837082 0 0.9876883029937744
vn -0.2181435227394104 0 0.97591668367385872
vn -0.27899134159088136 0 0.96029359102249152
vn -0.338736891746521 0 0.9408811330795288
vn -0.39714869856834408 0 0.91775429248809808
vn -0.45399031043052672 0 0.8910066485404968
vn -0.50904309749603272 0 0.8607410788536072
vn -0.56208264827728272 0 0.82708108425140384
vn -0.61290651559829712 0 0.7901554107666016
vn -0.66131269931793216 0 0.7501103281974792
vn -0.7071048021316528 0 0.7071087956428528
vn -0.75011265277862544 0 0.6613101363182068
vn -0.79015463590621952 0 0.61290746927261352
vn -0.82708024978637696 0 0.56208395957946776
vn -0.86074239015579216 0 0.509040892124176
vn -0.89100629091262816 0 0.45399090647697448
vn -0.91775530576705936 0 0.39714631438255312
vn -0.94088065624237056 0 0.3387382924556732
vn -0.9602941274642944 0 0.27898958325386048
vn -0.97591602802276608 0 0.21814648807048796
vn -0.98768889904022224 0 0.15643081068992614
vn -0.99556201696395872 0 0.09410766512155532
vn -0.99950653314590448 0 0.03141138702630996
vn -0.99950653314590448 0 -0.03141138702630996
vn -0.99556201696395872 0 -0.09410766512155532
vn -0.98768889904022224 0 -0.15643081068992614
vn -0.97591602802276608 0 -0.21814648807048796
vn -0.9602941274642944 0 -0.27898958325386048
vn -0.94088065624237056 0 -0.3387382924556732
vn -0.91775530576705936 0 -0.39714631438255312
vn -0.89100629091262816 0 -0.45399090647697448
vn -0.86074239015579216 0 -0.509040892124176
vn -0.82708024978637696 0 -0.56208395957946776
vn -0.79015463590621952 0 -0.61290746927261352
vn -0.75011265277862544 0 -0.6613101363182068
vn -0.7071048021316528 0 -0.7071087956428528
vn -0.66131269931793216 0 -0.7501103281974792
vn -0.61290651559829712 0 -0.7901554107666016
vn -0.56208264827728272 0 -0.82708108425140384
vn -0.50904309749603272 0 -0.8607410788536072
vn -0.45399031043052672 0 -0.8910066485404968
vn -0.39714869856834408 0 -0.91775429248809808
vn -0.338736891746521 0 -0.9408811330795288
vn -0.27899134159088136 0 -0.96029359102249152
vn -0.2181435227394104 0 -0.97591668367385872
vn -0.1564345806837082 0 -0.9876883029937744
vn -0.0941081941127777 0 -0.99556201696395872
vn -0.0314112938940525 0 -0.99950659275054928
vn 0.0314112938940525 0 -0.99950659275054928
vn 0.0941081941127777 0 -0.99556201696395872
vn 0.1564345806837082 0 -0.9876883029937744
vn 0.2181435227394104 0 -0.97591668367385872
vn 0.27899134159088136 0 -0.96029359102249152
vn 0.338736891746521 0 -0.9408811330795288
vn 0.39714869856834408 0 -0.91775429248809808
vn 0.45399031043052672 0 -0.8910066485404968
vn 0.50904309749603272 0 -0.8607410788536072
vn 0.56208264827728272 0 -0.82708108425140384
vn 0.61290651559829712 0 -0.7901554107666016
vn 0.66131269931793216 0 -0.7501103281974792
vn 0.7071048021316528 0 -0.7071087956428528
vn 0.75011265277862544 0 -0.6613101363182068
vn 0.79015463590621952 0 -0.61290746927261352
vn 0.82708024978637696 0 -0.56208395957946776
vn 0.86074239015579216 0 -0.509040892124176
vn 0.89100629091262816 0 -0.45399090647697448
vn 0.91775530576705936 0 -0.39714631438255312
vn 0.94088065624237056 0 -0.3387382924556732
vn 0.9602941274642944 0 -0.27898958325386048
vn 0.97591602802276608 0 -0.21814648807048796
vn 0.98768889904022224 0 -0.15643081068992614
vn 0.99556201696395872 0 -0.09410766512155532
vn 0.99950653314590448 0 -0.03141138702630996
vn 0 1 0
vn 0 -1 0
# 102 vertex normals

g obj_30669421
s 1
f 1//1 2//1 3//1
f 2//1 1//1 4//1
f 5//2 3//2 6//2
f 3//2 5//2 1//2
f 7//3 6//3 8//3
f 6//3 7//3 5//3
f 9//4 8//4 10//4
f 8//4 9//4 7//4
f 11//5 10//5 12//5
f 10//5 11//5 9//5
f 13//6 12//6 14//6
f 12//6 13//6 11//6
f 15//7 14//7 16//7
f 14//7 15//7 13//7
f 17//8 16//8 18//8
f 16//8 17//8 15//8
f 19//9 18//9 20//9
f 18//9 19//9 17//9
f 21//10 20//10 22//10
f 20//10 21//10 19//10
f 23//11 22//11 24//11
f 22//11 23//11 21//11
f 25//12 24//12 26//12
f 24//12 25//12 23//12
f 27//13 25//13 26//13
f 25//13 27//13 28//13
f 29//14 28//14 27//14
f 28//14 29//14 30//14
f 31//15 30//15 29//15
f 30//15 31//15 32//15
f 33//16 32//16 31//16
f 32//16 33//16 34//16
f 35//17 34//17 33//17
f 34//17 35//17 36//17
f 37//18 36//18 35//18
f 36//18 37//18 38//18
f 39//19 38//19 37//19
f 38//19 39//19 40//19
f 41//20 40//20 39//20
f 40//20 41//20 42//20
f 43//21 42//21 41//21
f 42//21 43//21 44//21
f 45//22 44//22 43//22
f 44//22 45//22 46//22
f 47//23 46//23 45//23
f 46//23 47//23 48//23
f 49//24 48//24 47//24
f 48//24 49//24 50//24
f 51//25 50//25 49//25
f 50//25 51//25 52//25
f 53//26 52//26 51//26
f 52//26 53//26 54//26
f 55//27 54//27 53//27
f 54//27 55//27 56//27
f 57//28 56//28 55//28
f 56//28 57//28 58//28
f 59//29 58//29 57//29
f 58//29 59//29 60//29
f 61//30 60//30 59//30
f 60//30 61//30 62//30
f 63//31 62//31 61//31
f 62//31 63//31 64//31
f 65//32 64//32 63//32
f 64//32 65//32 66//32
f 67//33 66//33 65//33
f 66//33 67//33 68//33
f 69//34 68//34 67//34
f 68//34 69//34 70//34
f 71//35 70//35 69//35
f 70//35 71//35 72//35
f 73//36 72//36 71//36
f 72//36 73//36 74//36
f 75//37 74//37 73//37
f 74//37 75//37 76//37
f 77//38 76//38 75//38
f 76//38 77//38 78//38
f 79//39 77//39 80//39
f 77//39 79//39 78//39
f 81//40 80//40 82//40
f 80//40 81//40 79//40
f 83//41 82//41 84//41
f 82//41 83//41 81//41
f 85//42 84//42 86//42
f 84//42 85//42 83//42
f 87//43 86//43 88//43
f 86//43 87//43 85//43
f 89//44 88//44 90//44
f 88//44 89//44 87//44
f 91//45 90//45 92//45
f 90//45 91//45 89//45
f 93//46 92//46 94//46
f 92//46 93//46 91//46
f 95//47 94//47 96//47
f 94//47 95//47 93//47
f 97//48 96//48 98//48
f 96//48 97//48 95//48
f 99//49 98//49 100//49
f 98//49 99//49 97//49
f 101//50 100//50 102//50
f 100//50 101//50 99//50
f 103//51 102//51 104//51
f 102//51 103//51 101//51
f 105//52 104//52 106//52
f 104//52 105//52 103//52
f 107//53 106//53 108//53
f 106//53 107//53 105//53
f 109//54 108//54 110//54
f 108//54 109//54 107//54
f 111//55 110//55 112//55
f 110//55 111//55 109//55
f 113//56 112//56 114//56
f 112//56 113//56 111//56
f 115//57 114//57 116//57
f 114//57 115//57 113//57
f 117//58 116//58 118//58
f 116//58 117//58 115//58
f 119//59 118//59 120//59
f 118//59 119//59 117//59
f 121//60 120//60 122//60
f 120//60 121//60 119//60
f 123//61 122//61 124//61
f 122//61 123//61 121//61
f 125//62 124//62 126//62
f 124//62 125//62 123//62
f 125//63 127//63 128//63
f 127//63 125//63 126//63
f 128//64 129//64 130//64
f 129//64 128//64 127//64
f 130//65 131//65 132//65
f 131//65 130//65 129//65
f 132//66 133//66 134//66
f 133//66 132//66 131//66
f 134//67 135//67 136//67
f 135//67 134//67 133//67
f 136//68 137//68 138//68
f 137//68 136//68 135//68
f 138//69 139//69 140//69
f 139//69 138//69 137//69
f 140//70 141//70 142//70
f 141//70 140//70 139//70
f 142//71 143//71 144//71
f 143//71 142//71 141//71
f 144//72 145//72 146//72
f 145//72 144//72 143//72
f 146//73 147//73 148//73
f 147//73 146//73 145//73
f 148//74 149//74 150//74
f 149//74 148//74 147//74
f 150//75 151//75 152//75
f 151//75 150//75 149//75
f 152//76 153//76 154//76
f 153//76 152//76 151//76
f 154//77 155//77 156//77
f 155//77 154//77 153//77
f 156//78 157//78 158//78
f 157//78 156//78 155//78
f 158//79 159//79 160//79
f 159//79 158//79 157//79
f 160//80 161//80 162//80
f 161//80 160//80 159//80
f 162//81 163//81 164//81
f 163//81 162//81 161//81
f 164//82 165//82 166//82
f 165//82 164//82 163//82
f 166//83 167//83 168//83
f 167//83 166//83 165//83
f 168//84 169//84 170//84
f 169//84 168//84 167//84
f 170//85 171//85 172//85
f 171//85 170//85 169//85
f 172//86 173//86 174//86
f 173//86 172//86 171//86
f 174//87 175//87 176//87
f 175//87 174//87 173//87
f 176//88 177//88 178//88
f 177//88 176//88 175//88
f 179//89 177//89 180//89
f 177//89 179//89 178//89
f 181//90 180//90 182//90
f 180//90 181//90 179//90
f 183//91 182//91 184//91
f 182//91 183//91 181//91
f 185//92 184//92 186//92
f 184//92 185//92 183//92
f 187//93 186//93 188//93
f 186//93 187//93 185//93
f 189//94 188//94 190//94
f 188//94 189//94 187//94
f 191//95 190//95 192//95
f 190//95 191//95 189//95
f 193//96 192//96 194//96
f 192//96 193//96 191//96
f 195//97 194//97 196//97
f 194//97 195//97 193//97
f 197//98 196//98 198//98
f 196//98 197//98 195//98
f 199//99 198//99 200//99
f 198//99 199//99 197//99
f 4//100 200//100 2//100
f 200//100 4//100 199//100
f 49//101 53//101 51//101
f 47//101 53//101 49//101
f 47//101 55//101 53//101
f 45//101 55//101 47//101
f 45//101 57//101 55//101
f 43//101 57//101 45//101
f 43//101 59//101 57//101
f 41//101 59//101 43//101
f 41//101 61//101 59//101
f 39//101 61//101 41//101
f 39//101 63//101 61//101
f 37//101 63//101 39//101
f 37//101 65//101 63//101
f 35//101 65//101 37//101
f 35//101 67//101 65//101
f 33//101 67//101 35//101
f 33//101 69//101 67//101
f 31//101 69//101 33//101
f 31//101 71//101 69//101
f 29//101 71//101 31//101
f 29//101 73//101 71//101
f 27//101 73//101 29//101
f 27//101 75//101 73//101
f 26//101 75//101 27//101
f 26//101 77//101 75//101
f 24//101 77//101 26//101
f 24//101 80//101 77//101
f 22//101 80//101 24//101
f 22//101 82//101 80//101
f 20//101 82//101 22//101
f 20//101 84//101 82//101
f 18//101 84//101 20//101
f 18//101 86//101 84//101
f 16//101 86//101 18//101
f 16//101 88//101 86//101
f 14//101 88//101 16//101
f 14//101 90//101 88//101
f 12//101 90//101 14//101
f 12//101 92//101 90//101
f 10//101 92//101 12//101
f 10//101 94//101 92//101
f 8//101 94//101 10//101
f 8//101 96//101 94//101
f 6//101 96//101 8//101
f 6//101 98//101 96//101
f 3//101 98//101 6//101
f 3//101 100//101 98//101
f 2//101 100//101 3//101
f 2//101 102//101 100//101
f 200//101 102//101 2//101
f 200//101 104//101 102//101
f 198//101 104//101 200//101
f 198//101 106//101 104//101
f 196//101 106//101 198//101
f 196//101 108//101 106//101
f 194//101 108//101 196//101
f 194//101 110//101 108//101
f 192//101 110//101 194//101
f 192//101 112//101 110//101
f 190//101 112//101 192//101
f 190//101 114//101 112//101
f 188//101 114//101 190//101
f 188//101 116//101 114//101
f 186//101 116//101 188//101
f 186//101 118//101 116//101
f 184//101 118//101 186//101
f 184//101 120//101 118//101
f 182//101 120//101 184//101
f 182//101 122//101 120//101
f 180//101 122//101 182//101
f 180//101 124//101 122//101
f 177//101 124//101 180//101
f 177//101 126//101 124//101
f 175//101 126//101 177//101
f 175//101 127//101 126//101
f 173//101 127//101 175//101
f 173//101 129//101 127//101
f 171//101 129//101 173//101
f 171//101 131//101 129//101
f 169//101 131//101 171//101
f 169//101 133//101 131//101
f 167//101 133//101 169//101
f 167//101 135//101 133//101
f 165//101 135//101 167//101
f 165//101 137//101 135//101
f 163//101 137//101 165//101
f 163//101 139//101 137//101
f 161//101 139//101 163//101
f 161//101 141//101 139//101
f 159//101 141//101 161//101
f 159//101 143//101 141//101
f 157//101 143//101 159//101
f 157//101 145//101 143//101
f 155//101 145//101 157//101
f 155//101 147//101 145//101
f 153//101 147//101 155//101
f 153//101 149//101 147//101
f 149//101 153//101 151//101
f 54//102 50//102 52//102
f 56//102 50//102 54//102
f 56//102 48//102 50//102
f 58//102 48//102 56//102
f 58//102 46//102 48//102
f 60//102 46//102 58//102
f 60//102 44//102 46//102
f 62//102 44//102 60//102
f 62//102 42//102 44//102
f 64//102 42//102 62//102
f 64//102 40//102 42//102
f 66//102 40//102 64//102
f 66//102 38//102 40//102
f 68//102 38//102 66//102
f 68//102 36//102 38//102
f 70//102 36//102 68//102
f 70//102 34//102 36//102
f 72//102 34//102 70//102
f 72//102 32//102 34//102
f 74//102 32//102 72//102
f 74//102 30//102 32//102
f 76//102 30//102 74//102
f 76//102 28//102 30//102
f 78//102 28//102 76//102
f 78//102 25//102 28//102
f 79//102 25//102 78//102
f 79//102 23//102 25//102
f 81//102 23//102 79//102
f 81//102 21//102 23//102
f 83//102 21//102 81//102
f 83//102 19//102 21//102
f 85//102 19//102 83//102
f 85//102 17//102 19//102
f 87//102 17//102 85//102
f 87//102 15//102 17//102
f 89//102 15//102 87//102
f 89//102 13//102 15//102
f 91//102 13//102 89//102
f 91//102 11//102 13//102
f 93//102 11//102 91//102
f 93//102 9//102 11//102
f 95//102 9//102 93//102
f 95//102 7//102 9//102
f 97//102 7//102 95//102
f 97//102 5//102 7//102
f 99//102 5//102 97//102
f 99//102 1//102 5//102
f 101//102 1//102 99//102
f 101//102 4//102 1//102
f 103//102 4//102 101//102
f 103//102 199//102 4//102
f 105//102 199//102 103//102
f 105//102 197//102 199//102
f 107//102 197//102 105//102
f 107//102 195//102 197//102
f 109//102 195//102 107//102
f 109//102 193//102 195//102
f 111//102 193//102 109//102
f 111//102 191//102 193//102
f 113//102 191//102 111//102
f 113//102 189//102 191//102
f 115//102 189//102 113//102
f 115//102 187//102 189//102
f 117//102 187//102 115//102
f 117//102 185//102 187//102
f 119//102 185//102 117//102
f 119//102 183//102 185//102
f 121//102 183//102 119//102
f 121//102 181//102 183//102
f 123//102 181//102 121//102
f 123//102 179//102 181//102
f 125//102 179//102 123//102
f 125//102 178//102 179//102
f 128//102 178//102 125//102
f 128//102 176//102 178//102
f 130//102 176//102 128//102
f 130//102 174//102 176//102
f 132//102 174//102 130//102
f 132//102 172//102 174//102
f 134//102 172//102 132//102
f 134//102 170//102 172//102
f 136//102 170//102 134//102
f 136//102 168//102 170//102
f 138//102 168//102 136//102
f 138//102 166//102 168//102
f 140//102 166//102 138//102
f 140//102 164//102 166//102
f 142//102 164//102 140//102
f 142//102 162//102 164//102
f 144//102 162//102 142//102
f 144//102 160//102 162//102
f 146//102 160//102 144//102
f 146//102 158//102 160//102
f 148//102 158//102 146//102
f 148//102 156//102 158//102
f 150//102 156//102 148//102
f 150//102 154//102 156//102
f 154//102 150//102 152//102
#396 polygons

